<svg width="32" height="32" viewBox="0 0 32 32" fill="none" xmlns="http://www.w3.org/2000/svg">
<path fill-rule="evenodd" clip-rule="evenodd" d="M18.5334 24.8002C18.7334 25.0002 18.9868 25.0935 19.2401 25.0935C19.4935 25.0935 19.7468 25.0002 19.9468 24.8002L28.0401 16.7068C28.4268 16.3202 28.4268 15.6802 28.0401 15.2935L19.9468 7.20016C19.5601 6.81349 18.9201 6.81349 18.5334 7.20016C18.1468 7.58682 18.1468 8.22682 18.5334 8.61349L24.92 15H4.66663C4.11996 15 3.66663 15.4533 3.66663 16C3.66663 16.5467 4.11996 17 4.66663 17H24.9203L18.5334 23.3868C18.1468 23.7735 18.1468 24.4135 18.5334 24.8002Z" fill="white"/>
</svg>
