<svg width="40" height="40" viewBox="0 0 40 40" fill="none" xmlns="http://www.w3.org/2000/svg">
<path d="M13.9334 25.55C13.5974 25.8321 13.3863 26.2353 13.3457 26.6721C13.3052 27.109 13.4385 27.5441 13.7167 27.8833C13.8566 28.0521 14.0285 28.1916 14.2224 28.2938C14.4163 28.3961 14.6285 28.4591 14.8468 28.4792C15.0651 28.4993 15.2852 28.4762 15.4945 28.4111C15.7039 28.3461 15.8983 28.2403 16.0667 28.1C17.1809 27.2017 18.5689 26.7118 20 26.7118C21.4312 26.7118 22.8192 27.2017 23.9334 28.1C24.1018 28.2403 24.2962 28.3461 24.5056 28.4111C24.7149 28.4762 24.935 28.4993 25.1533 28.4792C25.3716 28.4591 25.5838 28.3961 25.7777 28.2938C25.9716 28.1916 26.1435 28.0521 26.2834 27.8833C26.5616 27.5441 26.6949 27.109 26.6544 26.6721C26.6138 26.2353 26.4026 25.8321 26.0667 25.55C24.3469 24.1676 22.2066 23.414 20 23.414C17.7935 23.414 15.6532 24.1676 13.9334 25.55ZM15 18.3333C15.3297 18.3333 15.6519 18.2356 15.926 18.0524C16.2001 17.8693 16.4137 17.609 16.5398 17.3045C16.666 16.9999 16.699 16.6648 16.6347 16.3415C16.5704 16.0182 16.4116 15.7212 16.1786 15.4881C15.9455 15.255 15.6485 15.0963 15.3252 15.032C15.0019 14.9677 14.6668 15.0007 14.3622 15.1268C14.0577 15.253 13.7974 15.4666 13.6143 15.7407C13.4311 16.0148 13.3334 16.337 13.3334 16.6666C13.3334 17.1087 13.509 17.5326 13.8215 17.8452C14.1341 18.1577 14.558 18.3333 15 18.3333ZM20 3.33331C16.7037 3.33331 13.4814 4.3108 10.7405 6.14215C7.99972 7.97351 5.86352 10.5765 4.60206 13.6219C3.3406 16.6674 3.01054 20.0185 3.65363 23.2515C4.29671 26.4845 5.88406 29.4542 8.21494 31.7851C10.5458 34.116 13.5155 35.7033 16.7485 36.3464C19.9816 36.9895 23.3327 36.6594 26.3781 35.398C29.4235 34.1365 32.0265 32.0003 33.8579 29.2595C35.6892 26.5187 36.6667 23.2963 36.6667 20C36.6667 17.8113 36.2356 15.644 35.398 13.6219C34.5605 11.5998 33.3328 9.76251 31.7852 8.21487C30.2375 6.66722 28.4002 5.43957 26.3781 4.60199C24.356 3.76441 22.1887 3.33331 20 3.33331V3.33331ZM20 33.3333C17.363 33.3333 14.7851 32.5513 12.5924 31.0862C10.3998 29.6212 8.69082 27.5388 7.68165 25.1024C6.67249 22.6661 6.40844 19.9852 6.92291 17.3988C7.43738 14.8124 8.70726 12.4366 10.572 10.5719C12.4367 8.70719 14.8124 7.43731 17.3988 6.92284C19.9853 6.40837 22.6661 6.67242 25.1025 7.68159C27.5388 8.69075 29.6212 10.3997 31.0863 12.5924C32.5514 14.785 33.3334 17.3629 33.3334 20C33.3334 23.5362 31.9286 26.9276 29.4281 29.4281C26.9277 31.9286 23.5363 33.3333 20 33.3333V33.3333ZM25 15C24.6704 15 24.3482 15.0977 24.0741 15.2809C23.8 15.464 23.5864 15.7243 23.4602 16.0288C23.3341 16.3334 23.3011 16.6685 23.3654 16.9918C23.4297 17.3151 23.5884 17.6121 23.8215 17.8452C24.0546 18.0782 24.3516 18.237 24.6749 18.3013C24.9982 18.3656 25.3333 18.3326 25.6379 18.2064C25.9424 18.0803 26.2027 17.8667 26.3858 17.5926C26.569 17.3185 26.6667 16.9963 26.6667 16.6666C26.6667 16.2246 26.4911 15.8007 26.1786 15.4881C25.866 15.1756 25.4421 15 25 15Z" fill="white"/>
</svg>
