<svg width="24" height="24" viewBox="0 0 24 24" fill="none" xmlns="http://www.w3.org/2000/svg">
<path opacity="0.4" fill-rule="evenodd" clip-rule="evenodd" d="M4.25 6.75C4.25 4.13 6.38 2 9 2C11.62 2 13.75 4.13 13.75 6.75C13.74 9.32 11.73 11.4 9.17 11.49H9.15H9.1C9.04 11.48 8.96 11.48 8.88 11.49C6.26 11.4 4.25 9.32 4.25 6.75ZM16.8599 11.2101C18.7699 10.9801 20.1499 9.2801 19.9899 7.3401C19.8199 5.3601 18.0699 3.9001 16.1099 4.0701C15.6599 4.1101 15.2199 4.2301 14.8399 4.4201C15.2599 5.0501 15.5399 5.7901 15.6099 6.6001C15.7299 8.1001 15.1399 9.4801 14.1099 10.4001C14.7799 10.9701 15.6699 11.2801 16.6399 11.2301C16.6899 11.2101 16.7499 11.2101 16.8099 11.2101H16.8099H16.8399H16.8599Z" fill="white"/>
<path fill-rule="evenodd" clip-rule="evenodd" d="M20.2502 18.9699C21.2902 18.3999 21.9102 17.5599 21.9902 16.5899C22.0802 15.6299 21.6102 14.6999 20.6902 13.9599C18.9802 12.5799 16.2002 12.1499 13.9902 12.7899C14.8402 13.0999 15.6202 13.5199 16.2902 14.0499C17.4702 14.9999 18.0602 16.1899 17.9602 17.4299C17.8802 18.2899 17.4602 19.0999 16.7402 19.7499C17.9902 19.7799 19.2502 19.5199 20.2502 18.9699ZM3.92996 14.1499C6.73996 12.2899 11.29 12.2899 14.08 14.1499C15.34 14.9899 16.03 16.1299 16.04 17.3599C16.04 18.5999 15.34 19.7399 14.08 20.5899C12.68 21.5299 10.84 21.9999 8.99996 21.9999C7.15996 21.9999 5.31996 21.5299 3.91996 20.5899C2.65996 19.7499 1.95996 18.6099 1.95996 17.3799C1.95996 16.1499 2.65996 14.9999 3.92996 14.1499Z" fill="white"/>
</svg>
