<svg width="24" height="24" viewBox="0 0 24 24" fill="#3972DB" xmlns="http://www.w3.org/2000/svg">
<path opacity="0.4" d="M15.48 3H7.52C4.07 3 2 5.06 2 8.52V16.47C2 19.94 4.07 22 7.52 22H15.47C18.93 22 20.99 19.94 20.99 16.48V8.52C21 5.06 18.93 3 15.48 3Z"/>
<path fill-rule="evenodd" clip-rule="evenodd" d="M15.64 2.97979C17.48 1.13979 19.23 1.17979 21.02 2.97979C21.93 3.89979 22.38 4.78979 22.38 5.68979C22.38 6.57979 21.93 7.44979 21.02 8.35979L19.91 9.47979C19.84 9.54979 19.74 9.58979 19.64 9.58979C19.61 9.58979 19.56 9.58979 19.53 9.57979C17.08 8.87979 15.12 6.91979 14.42 4.46979C14.38 4.33979 14.41 4.19979 14.51 4.09979L15.64 2.97979ZM17.0901 10.0098C17.3301 10.1598 17.5901 10.2898 17.8601 10.4198C17.8847 10.4304 17.909 10.4408 17.9331 10.4512C18.184 10.5589 18.412 10.6569 18.6401 10.7298L13.2601 16.1098C12.9101 16.4698 12.2501 16.7998 11.7601 16.8698L8.7901 17.2898C8.6801 17.2998 8.5701 17.3098 8.4601 17.3098C7.9601 17.3098 7.5101 17.1398 7.1801 16.8098C6.7901 16.4198 6.6201 15.8298 6.7101 15.1998L7.1401 12.2198C7.2101 11.7298 7.5501 11.0698 7.9001 10.7198L13.2801 5.33984C13.3701 5.58984 13.4701 5.84984 13.6001 6.12984C13.7201 6.38984 13.8501 6.63984 14.0001 6.88984C14.1201 7.09984 14.2501 7.29984 14.3601 7.43984C14.4901 7.64984 14.6401 7.83984 14.7401 7.94984C14.7901 8.03984 14.8501 8.09984 14.8701 8.11984C15.1801 8.48984 15.5101 8.82984 15.8201 9.07984C15.9001 9.15984 15.9601 9.20984 15.9801 9.21984C16.1601 9.36984 16.3401 9.51984 16.5001 9.61984C16.6901 9.75984 16.8901 9.88984 17.0901 10.0098Z"/>
</svg>
