<svg width="32" height="32" viewBox="0 0 32 32" fill="none" xmlns="http://www.w3.org/2000/svg">
<path d="M25.0883 6.92332C21.635 3.48165 16.035 3.48165 12.605 6.92332C10.19 9.31499 9.46667 12.7567 10.4 15.79L4.91667 21.2733C4.53167 21.67 4.26334 22.4517 4.34501 23.0117L4.69501 25.555C4.82334 26.395 5.60501 27.1883 6.44501 27.305L8.98834 27.655C9.54834 27.7367 10.33 27.48 10.7267 27.0717L11.6833 26.115C11.9167 25.8933 11.9167 25.52 11.6833 25.2867L9.42001 23.0233C9.08167 22.685 9.08167 22.125 9.42001 21.7867C9.75834 21.4483 10.3183 21.4483 10.6567 21.7867L12.9317 24.0617C13.1533 24.2833 13.5267 24.2833 13.7483 24.0617L16.2217 21.6C19.2433 22.545 22.685 21.81 25.0883 19.4183C28.53 15.9767 28.53 10.365 25.0883 6.92332ZM18.9167 16C17.3067 16 16 14.6933 16 13.0833C16 11.4733 17.3067 10.1667 18.9167 10.1667C20.5267 10.1667 21.8333 11.4733 21.8333 13.0833C21.8333 14.6933 20.5267 16 18.9167 16Z" fill="#9A98A7"/>
</svg>
