<svg width="24" height="24" viewBox="0 0 24 24" fill="none" xmlns="http://www.w3.org/2000/svg">
<g id="icon / fill_group">
<path id="Union" fill-rule="evenodd" clip-rule="evenodd" d="M20 22.25C18.7574 22.25 17.75 21.2426 17.75 20C17.75 18.7574 18.7574 17.75 20 17.75C21.2426 17.75 22.25 18.7574 22.25 20C22.25 21.2426 21.2426 22.25 20 22.25ZM12 22.25C10.7574 22.25 9.75 21.2426 9.75 20C9.75 18.7574 10.7574 17.75 12 17.75C13.2426 17.75 14.25 18.7574 14.25 20C14.25 21.2426 13.2426 22.25 12 22.25ZM1.75 20C1.75 21.2426 2.75736 22.25 4 22.25C5.24264 22.25 6.25 21.2426 6.25 20C6.25 18.7574 5.24264 17.75 4 17.75C2.75736 17.75 1.75 18.7574 1.75 20ZM12 6.25C10.7574 6.25 9.75 5.24264 9.75 4C9.75 2.75736 10.7574 1.75 12 1.75C13.2426 1.75 14.25 2.75736 14.25 4C14.25 5.24264 13.2426 6.25 12 6.25Z" fill="#3972DB"/>
<path id="Vector" opacity="0.4" d="M11.25 19C11.25 19.41 11.59 19.75 12 19.75C12.41 19.75 12.75 19.41 12.75 19V11.75H17C18.58 11.75 19.25 12.42 19.25 14V19C19.25 19.41 19.59 19.75 20 19.75C20.41 19.75 20.75 19.41 20.75 19V14C20.75 11.58 19.42 10.25 17 10.25H12.75V5C12.75 4.59 12.41 4.25 12 4.25C11.59 4.25 11.25 4.59 11.25 5V10.25H7C4.58 10.25 3.25 11.58 3.25 14V19C3.25 19.41 3.59 19.75 4 19.75C4.41 19.75 4.75 19.41 4.75 19L4.75 14C4.75 12.42 5.42 11.75 7 11.75H11.25L11.25 19Z" fill="#3972DB"/>
</g>
</svg>
