<svg width="24" height="24" viewBox="0 0 24 24" fill="none" xmlns="http://www.w3.org/2000/svg">
<path opacity="0.4" d="M16.24 3.6499H7.76004C5.29004 3.6499 3.29004 5.6599 3.29004 8.1199V17.5299C3.29004 19.9899 5.30004 21.9999 7.76004 21.9999H16.23C18.7 21.9999 20.7 19.9899 20.7 17.5299V8.1199C20.71 5.6499 18.7 3.6499 16.24 3.6499Z" fill="white"/>
<path fill-rule="evenodd" clip-rule="evenodd" d="M14.3498 2H9.64977C8.60977 2 7.75977 2.84 7.75977 3.88V4.82C7.75977 5.86 8.59977 6.7 9.63977 6.7H14.3498C15.3898 6.7 16.2298 5.86 16.2298 4.82V3.88C16.2398 2.84 15.3898 2 14.3498 2ZM15 12.9502H8C7.59 12.9502 7.25 12.6102 7.25 12.2002C7.25 11.7902 7.59 11.4502 8 11.4502H15C15.41 11.4502 15.75 11.7902 15.75 12.2002C15.75 12.6102 15.41 12.9502 15 12.9502ZM8 16.9502H12.38C12.79 16.9502 13.13 16.6102 13.13 16.2002C13.13 15.7902 12.79 15.4502 12.38 15.4502H8C7.59 15.4502 7.25 15.7902 7.25 16.2002C7.25 16.6102 7.59 16.9502 8 16.9502Z" fill="white"/>
</svg>
