<svg width="24" height="24" viewBox="0 0 24 24" fill="none" xmlns="http://www.w3.org/2000/svg">
<path opacity="0.4" d="M7.1099 5.95979L16.1299 2.94979C20.1799 1.59979 22.3799 3.80979 21.0399 7.85979L18.0299 16.8798C16.0099 22.9498 12.6899 22.9498 10.6699 16.8798L9.7799 14.1998L7.0999 13.3098C1.0399 11.2998 1.0399 7.98979 7.1099 5.95979Z" fill="white"/>
<path fill-rule="evenodd" clip-rule="evenodd" d="M11.5901 12.16C11.7401 12.31 11.9301 12.38 12.1201 12.38C12.3101 12.38 12.5001 12.3 12.6501 12.16L16.4501 8.34C16.7401 8.05 16.7401 7.57 16.4501 7.28C16.1601 6.99 15.6801 6.99 15.3901 7.28L11.5901 11.1C11.3001 11.39 11.3001 11.87 11.5901 12.16Z" fill="white"/>
</svg>
