<svg width="32" height="32" viewBox="0 0 32 32" fill="none" xmlns="http://www.w3.org/2000/svg">
<path d="M15.9999 4.33334C12.9433 4.33334 10.4583 6.81834 10.4583 9.87501C10.4583 12.8733 12.8033 15.3 15.8599 15.405C15.9533 15.3933 16.0466 15.3933 16.1166 15.405C16.1399 15.405 16.1516 15.405 16.1749 15.405C16.1866 15.405 16.1866 15.405 16.1983 15.405C19.1849 15.3 21.5299 12.8733 21.5416 9.87501C21.5416 6.81834 19.0566 4.33334 15.9999 4.33334Z" fill="#9A98A7"/>
<path d="M21.9266 18.5083C18.6716 16.3383 13.3633 16.3383 10.085 18.5083C8.60329 19.5 7.78662 20.8417 7.78662 22.2767C7.78662 23.7117 8.60329 25.0417 10.0733 26.0217C11.7066 27.1183 13.8533 27.6667 16 27.6667C18.1466 27.6667 20.2933 27.1183 21.9266 26.0217C23.3966 25.03 24.2133 23.7 24.2133 22.2533C24.2016 20.8183 23.3966 19.4883 21.9266 18.5083Z" fill="#9A98A7"/>
</svg>
