<svg width="24" height="24" viewBox="0 0 24 24" fill="none" xmlns="http://www.w3.org/2000/svg">
<path fill-rule="evenodd" clip-rule="evenodd" d="M15 22.75H9C3.57 22.75 1.25 20.43 1.25 15V9C1.25 3.57 3.57 1.25 9 1.25H13C13.41 1.25 13.75 1.59 13.75 2C13.75 2.41 13.41 2.75 13 2.75H9C4.39 2.75 2.75 4.39 2.75 9V15C2.75 16.0933 2.84224 17.0196 3.04447 17.7965L7.1798 15.0201C8.2598 14.3001 9.7498 14.3801 10.7298 15.2101L11.0598 15.5001C11.5598 15.9301 12.4098 15.9301 12.8998 15.5001L17.0598 11.9301C18.1198 11.0201 19.7898 11.0201 20.8598 11.9301L21.25 12.2652V10C21.25 9.59 21.59 9.25 22 9.25C22.41 9.25 22.75 9.59 22.75 10V15C22.75 20.43 20.43 22.75 15 22.75ZM21.25 14.2469V15C21.25 19.61 19.61 21.25 15 21.25H9C6.25039 21.25 4.55735 20.6666 3.63867 19.2175L8.01981 16.2701C8.52981 15.9201 9.2898 15.9601 9.74981 16.3501L10.0798 16.6401C11.1498 17.5501 12.8198 17.5501 13.8798 16.6401L18.0398 13.0701C18.5298 12.6401 19.3798 12.6401 19.8798 13.0701L21.25 14.2469ZM9 10.75C7.48 10.75 6.25 9.52 6.25 8C6.25 6.48 7.48 5.25 9 5.25C10.52 5.25 11.75 6.48 11.75 8C11.75 9.52 10.52 10.75 9 10.75ZM9 6.75C8.31 6.75 7.75 7.31 7.75 8C7.75 8.69 8.31 9.25 9 9.25C9.69 9.25 10.25 8.69 10.25 8C10.25 7.31 9.69 6.75 9 6.75ZM16.03 7.47023C16.18 7.62023 16.37 7.69023 16.56 7.69023C16.75 7.69023 16.94 7.62023 17.09 7.47023L18.5001 6.06012L19.9102 7.47023C20.0602 7.62023 20.2502 7.69023 20.4402 7.69023C20.6402 7.69023 20.8302 7.62023 20.9702 7.47023C21.2602 7.18023 21.2602 6.70023 20.9702 6.41023L19.5601 5.00012L20.98 3.58023C21.27 3.29023 21.27 2.81023 20.98 2.52023C20.69 2.23023 20.21 2.23023 19.92 2.52023L18.5001 3.94012L17.0802 2.52023C16.7902 2.23023 16.3102 2.23023 16.0202 2.52023C15.7302 2.81023 15.7302 3.29023 16.0202 3.58023L17.4401 5.00012L16.03 6.41023C15.74 6.70023 15.74 7.18023 16.03 7.47023Z" fill="#9A98A7"/>
</svg>
