<svg width="24" height="24" viewBox="0 0 24 24" fill="none" xmlns="http://www.w3.org/2000/svg">
<path fill-rule="evenodd" clip-rule="evenodd" d="M7.97989 3.54L7.76616 4.81268C6.82872 4.86357 5.89312 4.93523 4.95967 5.02998L2.91967 5.22998C2.50967 5.26998 2.20967 5.62998 2.24967 6.04998C2.28967 6.46998 2.65967 6.76998 3.07967 6.72998L5.11967 6.52998C10.3497 5.99998 15.6297 6.19998 20.9197 6.72998H20.9997C21.3797 6.72998 21.7097 6.43998 21.7397 6.04998C21.7797 5.63998 21.4797 5.26998 21.0697 5.22998C19.4585 5.07184 17.8481 4.94219 16.2403 4.85245L16.2399 4.85L16.0199 3.55L16.0189 3.54413C15.8689 2.62414 15.6449 1.25 13.3099 1.25H10.6899C8.36155 1.25 8.1402 2.5781 7.98023 3.53794L7.97989 3.54ZM14.5499 3.8L14.7157 4.77965C12.9061 4.70827 11.1002 4.69214 9.30047 4.7476L9.46989 3.79L9.4714 3.781C9.62003 2.89906 9.64347 2.76 10.6999 2.76H13.3199C14.3799 2.76 14.4099 2.93 14.5499 3.8ZM8.7899 22.7502H15.2099C18.6999 22.7502 18.8399 20.8202 18.9499 19.2602L19.5999 9.1902C19.6299 8.7702 19.3099 8.4202 18.8999 8.3902C18.4899 8.3702 18.1299 8.6802 18.0999 9.0902L17.4499 19.1602C17.3499 20.6802 17.3099 21.2502 15.2099 21.2502H8.7899C6.70115 21.2502 6.65995 20.6809 6.5501 19.1629L6.5499 19.1602L5.8999 9.0902C5.8699 8.6802 5.5199 8.3702 5.0999 8.3902C4.6899 8.4202 4.3699 8.7802 4.3999 9.1902L5.0499 19.2602C5.1599 20.8202 5.2999 22.7502 8.7899 22.7502ZM13.6598 17.2501H10.3298C9.91983 17.2501 9.57983 16.9101 9.57983 16.5001C9.57983 16.0901 9.91983 15.7501 10.3298 15.7501H13.6598C14.0698 15.7501 14.4098 16.0901 14.4098 16.5001C14.4098 16.9101 14.0698 17.2501 13.6598 17.2501ZM9.49963 13.25H14.4996C14.9096 13.25 15.2496 12.91 15.2496 12.5C15.2496 12.09 14.9096 11.75 14.4996 11.75H9.49963C9.08963 11.75 8.74963 12.09 8.74963 12.5C8.74963 12.91 9.08963 13.25 9.49963 13.25Z" fill="#3972DB"/>
</svg>
