<svg width="24" height="24" viewBox="0 0 24 24" fill="none" xmlns="http://www.w3.org/2000/svg">
<path fill-rule="evenodd" clip-rule="evenodd" d="M15 22.75H9C3.57 22.75 1.25 20.43 1.25 15V9C1.25 3.57 3.57 1.25 9 1.25H11C11.41 1.25 11.75 1.59 11.75 2C11.75 2.41 11.41 2.75 11 2.75H9C4.39 2.75 2.75 4.39 2.75 9V15C2.75 19.61 4.39 21.25 9 21.25H15C19.61 21.25 21.25 19.61 21.25 15V13C21.25 12.59 21.59 12.25 22 12.25C22.41 12.25 22.75 12.59 22.75 13V15C22.75 20.43 20.43 22.75 15 22.75ZM17.9976 9.98779H12.7476C12.3376 9.98779 11.9976 9.64779 11.9976 9.23779C11.9976 8.82779 12.3376 8.48779 12.7476 8.48779H17.9976C18.4076 8.48779 18.7476 8.82779 18.7476 9.23779C18.7476 9.64779 18.4176 9.98779 17.9976 9.98779ZM6.9675 10.5275C7.1175 10.6775 7.3075 10.7475 7.4975 10.7475C7.6975 10.7475 7.8875 10.6675 8.0275 10.5275L10.2775 8.2775C10.5675 7.9875 10.5675 7.5075 10.2775 7.2175C9.9875 6.9275 9.5075 6.9275 9.2175 7.2175L7.4975 8.9375L7.2775 8.7175C6.9875 8.4275 6.5075 8.4275 6.2175 8.7175C5.9275 9.0075 5.9275 9.4875 6.2175 9.7775L6.9675 10.5275ZM17.9976 15.9878H12.7476C12.3376 15.9878 11.9976 15.6478 11.9976 15.2378C11.9976 14.8278 12.3376 14.4878 12.7476 14.4878H17.9976C18.4076 14.4878 18.7476 14.8278 18.7476 15.2378C18.7476 15.6478 18.4176 15.9878 17.9976 15.9878ZM6.9675 16.5275C7.1175 16.6775 7.3075 16.7475 7.4975 16.7475C7.6975 16.7475 7.8875 16.6675 8.0275 16.5275L10.2775 14.2775C10.5675 13.9875 10.5675 13.5075 10.2775 13.2175C9.9875 12.9275 9.5075 12.9275 9.2175 13.2175L7.4975 14.9375L7.2775 14.7175C6.9875 14.4275 6.5075 14.4275 6.2175 14.7175C5.9275 15.0075 5.9275 15.4875 6.2175 15.7775L6.9675 16.5275Z" fill="#9A98A7"/>
</svg>
