<svg xmlns="http://www.w3.org/2000/svg" width="24" height="24" fill="none"><path fill="#9A98A7" fill-rule="evenodd" d="M19.25 17.353a2.75 2.75 0 0 0-2 2.647c0 1.52 1.23 2.75 2.75 2.75s2.75-1.23 2.75-2.75a2.75 2.75 0 0 0-2-2.647V14c0-2.42-1.33-3.75-3.75-3.75h-4.25V6.647a2.75 2.75 0 0 0 2-2.647c0-1.52-1.23-2.75-2.75-2.75S9.25 2.48 9.25 4c0 1.26.845 2.32 2 2.647v3.603H7c-2.42 0-3.75 1.33-3.75 3.75v3.353a2.75 2.75 0 0 0-2 2.647c0 1.52 1.23 2.75 2.75 2.75S6.75 21.52 6.75 20a2.75 2.75 0 0 0-2-2.647V14c0-1.58.67-2.25 2.25-2.25h4.25v5.603a2.75 2.75 0 0 0-2 2.647c0 1.52 1.23 2.75 2.75 2.75s2.75-1.23 2.75-2.75a2.75 2.75 0 0 0-2-2.647V11.75H17c1.58 0 2.25.67 2.25 2.25v3.353ZM4 18.75a1.25 1.25 0 1 0 0 2.5 1.25 1.25 0 0 0 0-2.5Zm16 0a1.25 1.25 0 1 1 0 2.5 1.25 1.25 0 0 1 0-2.5ZM13.25 4a1.25 1.25 0 1 1-2.5 0 1.25 1.25 0 0 1 2.5 0ZM12 18.75a1.25 1.25 0 1 1 0 2.5 1.25 1.25 0 0 1 0-2.5Z" clip-rule="evenodd"/></svg>