<svg width="24" height="24" viewBox="0 0 24 24" fill="none" xmlns="http://www.w3.org/2000/svg">
<path fill-rule="evenodd" clip-rule="evenodd" d="M8.50008 17.6901C7.89008 17.6901 7.33008 17.4701 6.92008 17.0701C6.43008 16.5801 6.22008 15.8701 6.33008 15.1201L6.76008 12.1101C6.84008 11.5301 7.22008 10.7801 7.63008 10.3701L14.3112 3.68889C14.3557 3.62888 14.4091 3.57509 14.4704 3.5297L15.5101 2.49006C17.5001 0.500059 19.5201 0.500059 21.5101 2.49006C22.6001 3.58006 23.0901 4.69006 22.9901 5.80006C22.9001 6.70006 22.4201 7.58006 21.5101 8.48006L20.4186 9.57153C20.3936 9.60092 20.3664 9.62806 20.3373 9.65281L13.6301 16.3601C13.2201 16.7701 12.4701 17.1501 11.8901 17.2301L8.88008 17.6601C8.75008 17.6901 8.62008 17.6901 8.50008 17.6901ZM19.6407 8.21947L20.4401 7.42006C21.0901 6.77006 21.4301 6.19006 21.4801 5.65006C21.5401 5.00006 21.2001 4.31006 20.4401 3.54006C18.8401 1.94006 17.7401 2.39006 16.5701 3.55006L15.7659 4.35421C16.4114 6.14839 17.8445 7.57835 19.6407 8.21947ZM14.6191 5.501C15.4066 7.20267 16.7875 8.58349 18.4892 9.37098L12.5601 15.3001C12.3801 15.4901 11.9301 15.7101 11.6701 15.7501L8.66008 16.1801C8.37008 16.2201 8.13008 16.1601 7.98008 16.0101C7.83008 15.8601 7.77008 15.6201 7.81008 15.3301L8.24008 12.3201C8.28008 12.0601 8.50008 11.6201 8.69008 11.4301L14.6191 5.501ZM15 22.75H9C3.57 22.75 1.25 20.43 1.25 15V9C1.25 3.57 3.57 1.25 9 1.25H11C11.41 1.25 11.75 1.59 11.75 2C11.75 2.41 11.41 2.75 11 2.75H9C4.39 2.75 2.75 4.39 2.75 9V15C2.75 19.61 4.39 21.25 9 21.25H15C19.61 21.25 21.25 19.61 21.25 15V13C21.25 12.59 21.59 12.25 22 12.25C22.41 12.25 22.75 12.59 22.75 13V15C22.75 20.43 20.43 22.75 15 22.75Z" fill="#9A98A7"/>
</svg>
