<svg width="24" height="24" viewBox="0 0 24 24" fill="none" xmlns="http://www.w3.org/2000/svg">
<path fill-rule="evenodd" clip-rule="evenodd" d="M5.53999 19.5201C4.92999 19.5201 4.35999 19.31 3.94999 18.92C3.42999 18.43 3.17999 17.69 3.26999 16.89L3.63999 13.65C3.70999 13.04 4.07999 12.23 4.50999 11.79L11.347 4.55329C11.3552 4.54419 11.3636 4.53528 11.3723 4.52658L12.72 3.10005C14.77 0.930049 16.91 0.870049 19.08 2.92005C21.25 4.97005 21.31 7.11005 19.26 9.28005L11.05 17.97C10.63 18.42 9.84999 18.84 9.23999 18.9401L6.01999 19.49C5.95895 19.4936 5.9005 19.4985 5.84324 19.5033C5.74099 19.5118 5.64254 19.5201 5.53999 19.5201ZM5.59999 12.8101L11.5184 6.53845C12.2579 8.50755 13.8656 10.0294 15.8707 10.6631L9.94999 16.93C9.74999 17.14 9.26999 17.4001 8.97999 17.4501L5.75999 18C5.42999 18.05 5.15999 17.99 4.97999 17.82C4.79999 17.65 4.71999 17.38 4.75999 17.05L5.12999 13.8101C5.16999 13.5201 5.39999 13.0201 5.59999 12.8101ZM18.16 8.24005L17.0548 9.40989C14.9017 9.04461 13.1855 7.40634 12.7129 5.27265L13.81 4.11005C14.49 3.39005 15.16 2.91005 15.93 2.91005C16.55 2.91005 17.24 3.23005 18.04 4.00005C19.85 5.70005 19.4 6.92005 18.16 8.24005ZM3 22.75H21C21.41 22.75 21.75 22.41 21.75 22C21.75 21.59 21.41 21.25 21 21.25H3C2.59 21.25 2.25 21.59 2.25 22C2.25 22.41 2.59 22.75 3 22.75Z" fill="#3972DB"/>
</svg>
