<svg width="24" height="24" viewBox="0 0 24 24" fill="none" xmlns="http://www.w3.org/2000/svg">
<g id="icon / outline_link">
<path id="Union" fill-rule="evenodd" clip-rule="evenodd" d="M18.5401 13.94C18.6901 14.09 18.8801 14.16 19.0701 14.16C19.2601 14.16 19.4601 14.09 19.6101 13.95C22.2401 11.32 22.2401 7.02999 19.6101 4.39999C16.9701 1.76999 12.6901 1.76999 10.0601 4.39999C8.78008 5.66999 8.08008 7.36999 8.08008 9.16999C8.08008 10.97 8.79008 12.67 10.0601 13.94C10.3501 14.23 10.8301 14.23 11.1201 13.94C11.4101 13.65 11.4101 13.17 11.1201 12.88C10.1301 11.89 9.58008 10.57 9.58008 9.16999C9.58008 7.76999 10.1301 6.44999 11.1201 5.45999C13.1601 3.40999 16.4901 3.40999 18.5401 5.45999C20.5901 7.49999 20.5901 10.83 18.5401 12.88C18.2501 13.17 18.2501 13.65 18.5401 13.94ZM4.38993 19.6001C5.65993 20.8701 7.32993 21.5001 8.98993 21.5001C10.6599 21.5001 12.3199 20.8701 13.5799 19.6001C14.7999 18.3701 15.4799 16.7401 15.4799 15.0001C15.4799 13.2601 14.8099 11.6301 13.5799 10.4001C13.2899 10.1101 12.8099 10.1101 12.5199 10.4001C12.2299 10.6901 12.2299 11.1701 12.5199 11.4601C13.4599 12.4101 13.9799 13.6701 13.9799 15.0001C13.9799 16.3401 13.4599 17.6001 12.5199 18.5401C10.5699 20.4901 7.39993 20.4901 5.44993 18.5401C3.49993 16.5901 3.49993 13.4201 5.44993 11.4701C5.73993 11.1801 5.73993 10.7001 5.44993 10.4101C5.15993 10.1201 4.67993 10.1201 4.38993 10.4101C1.85993 12.9401 1.85993 17.0601 4.38993 19.6001Z" fill="white"/>
</g>
</svg>
