<svg width="24" height="24" viewBox="0 0 24 24" fill="none" xmlns="http://www.w3.org/2000/svg">
<path fill-rule="evenodd" clip-rule="evenodd" d="M22 2.75H21.75V14.1C21.75 16.42 20.42 17.75 18.1 17.75H12.7503V19.5253L16.3399 21.3202C16.7099 21.5102 16.8599 21.9602 16.6799 22.3302C16.5399 22.6002 16.2699 22.7502 16 22.7502C15.8899 22.7502 15.77 22.7202 15.67 22.6702L11.9999 20.8352L8.33025 22.67C8.23025 22.72 8.11027 22.75 8.00027 22.75C7.72027 22.75 7.46025 22.6 7.33025 22.34C7.14025 21.97 7.29028 21.52 7.67028 21.33L11.2503 19.54V17.75H5.89999C3.57999 17.75 2.25 16.42 2.25 14.1V2.75H2C1.59 2.75 1.25 2.41 1.25 2C1.25 1.59 1.59 1.25 2 1.25H3H21H22C22.41 1.25 22.75 1.59 22.75 2C22.75 2.41 22.41 2.75 22 2.75ZM12.0003 16.25H18.09C19.58 16.25 20.24 15.59 20.24 14.1V2.75H3.75V14.1C3.75 15.59 4.40999 16.25 5.89999 16.25H12.0003ZM6.91994 11.4802C7.06994 11.6602 7.28993 11.7502 7.49993 11.7502C7.66993 11.7502 7.83994 11.6902 7.97994 11.5802L10.9099 9.14019L11.9599 10.8902C12.1499 11.2102 12.4599 11.4302 12.8199 11.4902C13.1699 11.5502 13.5399 11.4502 13.8299 11.2102L16.9799 8.58016C17.2999 8.31016 17.3499 7.84016 17.0799 7.52016C16.8099 7.20016 16.3399 7.16019 16.0199 7.42019L13.0899 9.86016L12.0399 8.11016C11.8499 7.79016 11.5399 7.57018 11.1799 7.51018C10.8299 7.45018 10.4599 7.55018 10.1699 7.79018L7.01992 10.4202C6.69991 10.6902 6.64994 11.1602 6.91994 11.4802Z" fill="#fff"/>
</svg>
