<svg xmlns="http://www.w3.org/2000/svg" width="25" height="24" fill="none"><path fill="#3972DB" fill-rule="evenodd" d="M15.5 22.75h-6c-5.43 0-7.75-2.32-7.75-7.75V9c0-5.43 2.32-7.75 7.75-7.75h2c.41 0 .75.34.75.75s-.34.75-.75.75h-2C4.89 2.75 3.25 4.39 3.25 9v6c0 4.61 1.64 6.25 6.25 6.25h6c4.61 0 6.25-1.64 6.25-6.25v-2c0-.41.34-.75.75-.75s.75.34.75.75v2c0 5.43-2.32 7.75-7.75 7.75Zm2.998-12.762h-5.25c-.41 0-.75-.34-.75-.75s.34-.75.75-.75h5.25a.749.749 0 1 1 0 1.5Zm-11.03.54a.75.75 0 0 0 1.06 0l2.25-2.25c.29-.29.29-.77 0-1.06a.754.754 0 0 0-1.06 0l-1.72 1.72-.22-.22a.754.754 0 0 0-1.06 0c-.29.29-.29.77 0 1.06l.75.75Zm11.03 5.46h-5.25c-.41 0-.75-.34-.75-.75s.34-.75.75-.75h5.25a.749.749 0 1 1 0 1.5Zm-11.03.54a.75.75 0 0 0 1.06 0l2.25-2.25c.29-.29.29-.77 0-1.06a.754.754 0 0 0-1.06 0l-1.72 1.72-.22-.22a.754.754 0 0 0-1.06 0c-.29.29-.29.77 0 1.06l.75.75Z" clip-rule="evenodd"/></svg>