<svg width="24" height="24" viewBox="0 0 24 24" fill="none" xmlns="http://www.w3.org/2000/svg">
<path fill-rule="evenodd" clip-rule="evenodd" d="M15 22.75H9C3.57 22.75 1.25 20.43 1.25 15V9C1.25 3.57 3.57 1.25 9 1.25H15C20.43 1.25 22.75 3.57 22.75 9V15C22.75 20.43 20.43 22.75 15 22.75ZM2.75153 8.75973C2.75051 8.83891 2.75 8.91899 2.75 9V15C2.75 19.61 4.39 21.25 9 21.25H15C19.61 21.25 21.25 19.61 21.25 15V9C21.25 8.91571 21.2495 8.83242 21.2483 8.7501L2.75153 8.75973ZM2.84694 7.25968C3.25847 3.96909 5.02536 2.75 9 2.75H15C18.9708 2.75 20.7381 3.96674 21.1519 7.25015L2.84694 7.25968ZM14.54 17.3399C14.67 17.5999 14.93 17.7499 15.21 17.7499C15.32 17.7499 15.43 17.7199 15.55 17.6499C16.32 17.2699 16.98 16.6899 17.46 15.9699C17.86 15.3699 17.86 14.5999 17.46 13.9999C16.98 13.2799 16.32 12.6999 15.55 12.3099C15.18 12.1299 14.73 12.2799 14.54 12.6499C14.36 13.0199 14.51 13.4699 14.88 13.6599C15.42 13.9299 15.88 14.3399 16.21 14.8399C16.27 14.9399 16.27 15.0599 16.21 15.1499C15.88 15.6499 15.42 16.0599 14.88 16.3299C14.5 16.5199 14.35 16.9699 14.54 17.3399ZM8.67002 17.6699C8.77002 17.7199 8.89002 17.7499 9.00002 17.7499C9.27002 17.7499 9.54002 17.5999 9.68002 17.3599C9.86002 16.9899 9.71002 16.5399 9.34002 16.3499C8.80002 16.0799 8.34002 15.6699 8.01002 15.1699C7.95002 15.0699 7.95002 14.9499 8.01002 14.8599C8.34002 14.3599 8.80002 13.9499 9.34002 13.6799C9.72002 13.4899 9.87002 13.0399 9.68002 12.6699C9.49002 12.2999 9.04002 12.1399 8.67002 12.3299C7.90002 12.7099 7.24002 13.2899 6.76002 14.0099C6.36002 14.6099 6.36002 15.3799 6.76002 15.9799C7.24002 16.6999 7.90002 17.2799 8.67002 17.6699Z" fill="#9A98A7"/>
</svg>
