<svg width="24" height="24" viewBox="0 0 24 24" fill="none" xmlns="http://www.w3.org/2000/svg">
<path fill-rule="evenodd" clip-rule="evenodd" d="M3.46994 7.02994C3.61994 7.17994 3.80994 7.24994 3.99994 7.24994C4.18994 7.24994 4.37994 7.17994 4.52994 7.02994L7.52994 4.02994C7.81994 3.73994 7.81994 3.25994 7.52994 2.96994C7.23994 2.67994 6.75994 2.67994 6.46994 2.96994L3.99994 5.43994L3.52994 4.96994C3.23994 4.67994 2.75994 4.67994 2.46994 4.96994C2.17994 5.25994 2.17994 5.73994 2.46994 6.02994L3.46994 7.02994ZM20.9999 6.25H10.9999C10.5899 6.25 10.2499 5.91 10.2499 5.5C10.2499 5.09 10.5899 4.75 10.9999 4.75H20.9999C21.4099 4.75 21.7499 5.09 21.7499 5.5C21.7499 5.91 21.4099 6.25 20.9999 6.25ZM10.9999 13.25H20.9999C21.4099 13.25 21.7499 12.91 21.7499 12.5C21.7499 12.09 21.4099 11.75 20.9999 11.75H10.9999C10.5899 11.75 10.2499 12.09 10.2499 12.5C10.2499 12.91 10.5899 13.25 10.9999 13.25ZM10.9999 20.25H20.9999C21.4099 20.25 21.7499 19.91 21.7499 19.5C21.7499 19.09 21.4099 18.75 20.9999 18.75H10.9999C10.5899 18.75 10.2499 19.09 10.2499 19.5C10.2499 19.91 10.5899 20.25 10.9999 20.25ZM3.99994 14.2499C3.80994 14.2499 3.61994 14.1799 3.46994 14.0299L2.46994 13.0299C2.17994 12.7399 2.17994 12.2599 2.46994 11.9699C2.75994 11.6799 3.23994 11.6799 3.52994 11.9699L3.99994 12.4399L6.46994 9.96994C6.75994 9.67994 7.23994 9.67994 7.52994 9.96994C7.81994 10.2599 7.81994 10.7399 7.52994 11.0299L4.52994 14.0299C4.37994 14.1799 4.18994 14.2499 3.99994 14.2499ZM3.46994 21.0299C3.61994 21.1799 3.80994 21.2499 3.99994 21.2499C4.18994 21.2499 4.37994 21.1799 4.52994 21.0299L7.52994 18.0299C7.81994 17.7399 7.81994 17.2599 7.52994 16.9699C7.23994 16.6799 6.75994 16.6799 6.46994 16.9699L3.99994 19.4399L3.52994 18.9699C3.23994 18.6799 2.75994 18.6799 2.46994 18.9699C2.17994 19.2599 2.17994 19.7399 2.46994 20.0299L3.46994 21.0299Z" fill="#9A98A7"/>
</svg>
