<svg width="24" height="24" viewBox="0 0 24 24" fill="none" xmlns="http://www.w3.org/2000/svg">
<path fill-rule="evenodd" clip-rule="evenodd" d="M9 3.5H15C18.0376 3.5 20.5 5.96243 20.5 9V15C20.5 18.0376 18.0376 20.5 15 20.5H9C5.96243 20.5 3.5 18.0376 3.5 15V9C3.5 5.96243 5.96243 3.5 9 3.5ZM2 9C2 5.13401 5.13401 2 9 2H15C18.866 2 22 5.13401 22 9V15C22 18.866 18.866 22 15 22H9C5.13401 22 2 18.866 2 15V9ZM16.5394 8.05472C16.6261 8.09085 16.7048 8.14378 16.7709 8.21047C16.8432 8.27711 16.9008 8.35797 16.9402 8.44799C16.9796 8.538 17 8.6352 17 8.73346C17 8.83173 16.9796 8.92893 16.9402 9.01894C16.9008 9.10895 16.8432 9.18982 16.7709 9.25645L10.9647 15.0627C10.8985 15.1294 10.8198 15.1823 10.7331 15.2184C10.6464 15.2546 10.5534 15.2732 10.4595 15.2732C10.3656 15.2732 10.2726 15.2546 10.1858 15.2184C10.0991 15.1823 10.0204 15.1294 9.95429 15.0627L7.22195 12.3303C7.15327 12.264 7.09833 12.1848 7.06027 12.0972C7.0222 12.0096 7.00176 11.9154 7.00011 11.8199C6.99846 11.7245 7.01563 11.6296 7.05064 11.5407C7.08565 11.4519 7.13782 11.3708 7.20416 11.3022C7.2705 11.2335 7.34972 11.1785 7.4373 11.1405C7.52488 11.1024 7.61909 11.082 7.71457 11.0803C7.81004 11.0787 7.90491 11.0958 7.99375 11.1308C8.08259 11.1659 8.16367 11.218 8.23235 11.2844L10.4595 13.5186L15.7605 8.21047C15.8267 8.14378 15.9054 8.09085 15.9921 8.05472C16.0788 8.0186 16.1718 8 16.2657 8C16.3597 8 16.4527 8.0186 16.5394 8.05472Z" fill="#9A98A7"/>
</svg>
