<svg width="24" height="24" viewBox="0 0 24 24" fill="none" xmlns="http://www.w3.org/2000/svg">
<path fill-rule="evenodd" clip-rule="evenodd" d="M9.88118 5.4844C9.92175 5.49276 9.95716 5.50005 9.99987 5.50005C10.1299 5.50005 10.2599 5.45005 10.3499 5.35005C10.4799 5.23005 10.5299 5.04005 10.4799 4.86005L10.0799 3.50005L10.4799 2.14005C10.5299 1.97005 10.4799 1.78005 10.3499 1.65005C10.2199 1.52005 10.0399 1.47005 9.85987 1.52005L8.49987 1.92005L7.13987 1.52005C6.96987 1.47005 6.77987 1.52005 6.64987 1.65005C6.51987 1.77005 6.46987 1.96005 6.51987 2.14005L6.91987 3.50005L6.51987 4.86005C6.46987 5.04005 6.51987 5.22005 6.64987 5.35005C6.76987 5.48005 6.95987 5.53005 7.13987 5.48005L8.49987 5.08005L9.85987 5.48005L9.88118 5.4844ZM8.61856 4.07571C8.57798 4.06735 8.54257 4.06005 8.49987 4.06005C8.45716 4.06005 8.42175 4.06735 8.38118 4.07571L8.35987 4.08005L7.73987 4.26005L7.91987 3.64005C7.94987 3.55005 7.94987 3.45005 7.91987 3.36005L7.73987 2.74005L8.35987 2.92005C8.44987 2.95005 8.54987 2.95005 8.63987 2.92005L9.25987 2.74005L9.07987 3.36005C9.04987 3.45005 9.04987 3.55005 9.07987 3.64005L9.25987 4.26005L8.63987 4.08005L8.61856 4.07571ZM4.99988 21.8699C4.25988 21.8699 3.52988 21.5899 2.96988 21.0299C2.42988 20.4899 2.12988 19.7699 2.12988 18.9999C2.12988 18.2299 2.42988 17.5099 2.96988 16.9699L15.9699 3.96988C17.0899 2.84988 18.9099 2.84988 20.0299 3.96988C20.5699 4.50988 20.8699 5.22988 20.8699 5.99988C20.8699 6.76988 20.5699 7.48988 20.0299 8.02988L18.5453 9.51442L18.5399 9.51993L18.5342 9.52557L7.02988 21.0299C6.46988 21.5899 5.73988 21.8699 4.99988 21.8699ZM18.9699 6.96988L18.0099 7.9299L16.0699 5.9899L17.0299 5.02988C17.2999 4.75988 17.6499 4.62988 17.9999 4.62988C18.3499 4.62988 18.6999 4.75988 18.9699 5.02988C19.2299 5.28988 19.3699 5.62988 19.3699 5.99988C19.3699 6.36988 19.2299 6.70988 18.9699 6.96988ZM4.02988 18.0299L15.0099 7.0499L16.9499 8.9899L5.96988 19.9699C5.43988 20.4999 4.55988 20.4999 4.02988 19.9699C3.76988 19.7099 3.62988 19.3699 3.62988 18.9999C3.62988 18.6299 3.76988 18.2899 4.02988 18.0299ZM5.99987 11.5001C5.95716 11.5001 5.92175 11.4928 5.88118 11.4844L5.85987 11.4801L4.49987 11.0801L3.13987 11.4801C2.95987 11.5301 2.77987 11.4801 2.64987 11.3501C2.51987 11.2201 2.46987 11.0301 2.51987 10.8601L2.91987 9.50005L2.51987 8.14005C2.46987 7.96005 2.51987 7.77005 2.64987 7.65005C2.77987 7.53005 2.96987 7.47005 3.13987 7.52005L4.49987 7.92005L5.85987 7.52005C6.02987 7.47005 6.21987 7.52005 6.34987 7.65005C6.47987 7.78005 6.52987 7.97005 6.47987 8.14005L6.07987 9.50005L6.47987 10.8601C6.52987 11.0401 6.47987 11.2301 6.34987 11.3501C6.25987 11.4501 6.12987 11.5001 5.99987 11.5001ZM4.49987 10.0601C4.54258 10.0601 4.57799 10.0673 4.61857 10.0757L4.63987 10.0801L5.25987 10.2601L5.07987 9.64005C5.04987 9.55005 5.04987 9.45005 5.07987 9.36005L5.25987 8.74005L4.63987 8.92005C4.54987 8.95005 4.44987 8.95005 4.35987 8.92005L3.73987 8.74005L3.91987 9.36005C3.94987 9.45005 3.94987 9.55005 3.91987 9.64005L3.73987 10.2601L4.35987 10.0801L4.38117 10.0757C4.42175 10.0673 4.45716 10.0601 4.49987 10.0601ZM20.8812 16.4844C20.9218 16.4928 20.9572 16.5001 20.9999 16.5001C21.1299 16.5001 21.2599 16.4501 21.3499 16.3501C21.4799 16.2301 21.5299 16.0401 21.4799 15.8601L21.0799 14.5001L21.4799 13.1401C21.5299 12.9701 21.4799 12.7801 21.3499 12.6501C21.2199 12.5201 21.0299 12.4701 20.8599 12.5201L19.4999 12.9201L18.1399 12.5201C17.9699 12.4701 17.7799 12.5301 17.6499 12.6501C17.5199 12.7701 17.4699 12.9601 17.5199 13.1401L17.9199 14.5001L17.5199 15.8601C17.4699 16.0301 17.5199 16.2201 17.6499 16.3501C17.7799 16.4801 17.9599 16.5301 18.1399 16.4801L19.4999 16.0801L20.8599 16.4801C20.8672 16.4815 20.8743 16.483 20.8812 16.4844ZM19.6186 15.0757C19.578 15.0673 19.5426 15.0601 19.4999 15.0601C19.4572 15.0601 19.4218 15.0673 19.3812 15.0757C19.3742 15.0771 19.3672 15.0786 19.3599 15.0801L18.7399 15.2601L18.9199 14.6401C18.9499 14.5501 18.9499 14.4501 18.9199 14.3601L18.7399 13.7401L19.3599 13.9201C19.4499 13.9501 19.5499 13.9501 19.6399 13.9201L20.2599 13.7401L20.0799 14.3601C20.0499 14.4501 20.0499 14.5501 20.0799 14.6401L20.2599 15.2601L19.6399 15.0801C19.6326 15.0786 19.6255 15.0771 19.6186 15.0757Z" fill="#9A98A7"/>
</svg>
