<svg width="24" height="24" viewBox="0 0 24 24" fill="none" xmlns="http://www.w3.org/2000/svg">
<g id="icon / outline_send">
<path id="Union" fill-rule="evenodd" clip-rule="evenodd" d="M10.0499 16.8301C11.3699 20.8001 13.0399 21.6301 14.2199 21.6301C15.3999 21.6301 17.0699 20.8001 18.3999 16.8201L21.2299 8.33007C21.9399 6.21007 21.7299 4.43007 20.6399 3.35007C19.5499 2.27007 17.7799 2.06007 15.6599 2.77007L7.16988 5.60007C3.20988 6.93007 2.37988 8.61007 2.37988 9.78007C2.37988 10.9601 3.20988 12.6301 7.16988 13.9501L9.32988 14.6701L10.0499 16.8301ZM3.86988 9.78007C3.86988 9.06007 4.85988 7.96007 7.63988 7.03007L16.1299 4.19007C17.6599 3.68007 18.9199 3.76007 19.5699 4.41007C20.2199 5.06007 20.3099 6.32007 19.7999 7.86007L16.9699 16.3501C16.0399 19.1301 14.9399 20.1201 14.2199 20.1201C13.4999 20.1201 12.3899 19.1301 11.4699 16.3501L10.7199 14.1L14.22 10.59C14.51 10.3 14.51 9.82 14.22 9.53C13.93 9.24 13.45 9.24 13.16 9.53L9.58005 13.12C9.56846 13.1316 9.55733 13.1435 9.54666 13.1557L7.63988 12.5201C4.85988 11.6001 3.86988 10.5001 3.86988 9.78007Z" fill="white"/>
</g>
</svg>
