<svg width="24" height="24" viewBox="0 0 24 24" fill="none" xmlns="http://www.w3.org/2000/svg">
<path fill-rule="evenodd" clip-rule="evenodd" d="M14 6.75H10C9.14849 6.75 7.64397 6.75 7.3148 4.83094C4.95339 5.10792 3.75 6.15551 3.75 9.99993V15.9999C3.75 19.6999 4.48 21.2499 9 21.2499H15C19.52 21.2499 20.25 19.6999 20.25 15.9999V9.99993C20.25 6.16746 19.0541 5.11446 16.7072 4.83354C16.5786 5.74228 16.0634 6.75 14 6.75ZM15.25 4.05262C15.2496 4.99925 15.2276 5.25 14 5.25H10C9.02601 5.25 8.7586 5.25 8.75021 4.05968C8.75117 4.03675 8.75112 4.01353 8.75001 3.99006C8.75139 2.75 9.01263 2.75 10 2.75H14C14.9848 2.75 15.2472 2.75 15.25 3.98038C15.2488 4.00465 15.2488 4.02875 15.25 4.05262ZM16.7087 3.32433C16.4355 1.25 14.8739 1.25 14 1.25H10C9.12492 1.25 7.5602 1.25 7.29021 3.33284C3.71757 3.7203 2.25 5.6994 2.25 9.99993V15.9999C2.25 20.1699 3.38 22.7499 9 22.7499H15C20.62 22.7499 21.75 20.1699 21.75 15.9899V9.98993C21.75 5.69839 20.2821 3.71986 16.7087 3.32433ZM8 12.95H15C15.41 12.95 15.75 12.61 15.75 12.2C15.75 11.79 15.41 11.45 15 11.45H8C7.59 11.45 7.25 11.79 7.25 12.2C7.25 12.61 7.59 12.95 8 12.95ZM8 16.95H12.38C12.79 16.95 13.13 16.61 13.13 16.2C13.13 15.79 12.79 15.45 12.38 15.45H8C7.59 15.45 7.25 15.79 7.25 16.2C7.25 16.61 7.59 16.95 8 16.95Z" fill="#9A98A7"/>
</svg>
