<svg width="24" height="24" viewBox="0 0 24 24" fill="none" xmlns="http://www.w3.org/2000/svg">
<g id="icon / textalign-left">
<path id="Union" fill-rule="evenodd" clip-rule="evenodd" d="M3 5.25H21C21.41 5.25 21.75 4.91 21.75 4.5C21.75 4.09 21.41 3.75 21 3.75H3C2.59 3.75 2.25 4.09 2.25 4.5C2.25 4.91 2.59 5.25 3 5.25ZM3 10.25H12.47C12.89 10.25 13.22 9.91 13.22 9.5C13.22 9.09 12.88 8.75 12.47 8.75H3C2.59 8.75 2.25 9.09 2.25 9.5C2.25 9.91 2.59 10.25 3 10.25ZM21 15.25H3C2.59 15.25 2.25 14.91 2.25 14.5C2.25 14.09 2.59 13.75 3 13.75H21C21.41 13.75 21.75 14.09 21.75 14.5C21.75 14.91 21.41 15.25 21 15.25ZM3 20.25H12.47C12.89 20.25 13.22 19.91 13.22 19.5C13.22 19.09 12.88 18.75 12.47 18.75H3C2.59 18.75 2.25 19.09 2.25 19.5C2.25 19.91 2.59 20.25 3 20.25Z" fill="#3972DB"/>
</g>
</svg>
